<svg xmlns="http://www.w3.org/2000/svg" viewBox="0 0 48 48">
  <path d="M19.22,15.80 L25.88,33.00 L23.81,33.00 L21.70,27.56 L14.84,27.56 L12.74,33.00 L10.72,33.00 L14.40,23.56 L19.22,15.80 Z M17.54,20.39 L15.50,25.79 L21.11,25.79 L19.10,20.39 L18.87,19.70 L18.55,18.70 L18.28,17.87 L17.89,19.28 L17.54,20.39 Z M30.39,20.26 L32.10,19.97 L32.75,19.95 L34.46,20.12 L35.65,20.59 L36.14,20.96 L36.16,20.98 L36.78,21.79 L37.16,22.92 L37.28,24.20 L37.28,24.27 L37.28,33.00 L35.86,33.00 L35.48,31.10 L35.39,31.10 L34.28,32.26 L33.64,32.70 L32.59,33.09 L31.03,33.23 L29.60,33.05 L28.14,32.31 L27.48,31.54 L27.10,30.53 L27.00,29.53 L27.00,29.47 L27.18,28.25 L27.68,27.30 L28.48,26.55 L28.52,26.52 L29.70,25.94 L31.38,25.54 L33.07,25.40 L33.16,25.39 L35.38,25.30 L35.38,24.52 L35.21,23.13 L34.66,22.18 L33.90,21.72 L32.65,21.52 L31.12,21.70 L30.73,21.81 L28.99,22.50 L28.39,21.02 L30.39,20.26 Z M34.27,30.70 L34.90,29.91 L35.27,28.86 L35.36,27.91 L35.36,27.86 L35.36,26.67 L33.40,26.75 L31.32,27.00 L30.01,27.54 L29.36,28.22 L29.03,29.50 L29.20,30.47 L29.70,31.12 L30.50,31.53 L31.46,31.65 L32.83,31.47 L34.27,30.70 Z" fill="currentColor" fill-rule="evenodd"/>
  <line x1="9" y1="37" x2="39" y2="37" stroke="currentColor" stroke-width="1" stroke-dasharray="4 1.5 1 1.5" fill="none"/>
  <circle cx="9" cy="37" r="2" fill="currentColor" stroke="none"/>
</svg>
