<svg xmlns="http://www.w3.org/2000/svg" viewBox="0 0 48 48">
  <path fill-rule="evenodd" fill="currentColor" stroke="none" d="M34.31,22 L37.92,22.54 L37.92,25.46 L34.31,26 L32.70,29.87 L34.88,32.81 L32.81,34.88 L29.87,32.70 L26,34.31 L25.46,37.92 L22.54,37.92 L22,34.31 L18.13,32.70 L15.19,34.88 L13.12,32.81 L15.30,29.87 L13.69,26 L10.08,25.46 L10.08,22.54 L13.69,22 L15.30,18.13 L13.12,15.19 L15.19,13.12 L18.13,15.30 L22,13.69 L22.54,10.08 L25.46,10.08 L26,13.69 L29.87,15.30 L32.81,13.12 L34.88,15.19 L32.70,18.13 Z M22.2,20.43 L22.2,18.4 L25.8,18.4 L25.8,20.43 A4,4 0 1,1 22.2,20.43 Z"/>
</svg>
